PathFileType	4	(X/Y/Z)	C:/Users/beibeiliu/ov580/test_trc/User2\sequence.11_training_dense_right.trc
DataRate	CameraRate	NumFrames	NumMarkers	Units	OrigDataRate	OrigDataStartFrame	OrigNumFrames
120	120	16	19	mm	120	100	124
Frame#	Time	ThumbCMC			ThumbMCP			ThumbIP			ThumbTip			IndexMCP			IndexPIP			IndexTip			MiddleMCP			MiddlePIP			MiddleTip			RingMCP			RingPIP			RingTip			PinkyMCP			PinkyPIP			PinkyTip			BackHand1			BackHand2			BackHand3	
		X0	Y0	Z0	X1	Y1	Z1	X2	Y2	Z2	X3	Y3	Z3	X4	Y4	Z4	X5	Y5	Z5	X6	Y6	Z6	X7	Y7	Z7	X8	Y8	Z8	X9	Y9	Z9	X10	Y10	Z10	X11	Y11	Z11	X12	Y12	Z12	X13	Y13	Z13	X14	Y14	Z14	X15	Y15	Z15	X16	Y16	Z16	X17	Y17	Z17	X18	Y18	Z18	
99	0.825	91.3332	-23.4643	-23.7544	85.3663	-42.5683	-55.4953	107.049	-52.3451	-87.2921	138.04	-52.2437	-91.2267	89.3776	-4.54072	-101.157	79.6239	-6.90032	-125.034	71.3951	-8.97418	-155.584	116.519	-3.0217	-114.185	114.407	-6.85709	-142.203	109.241	-7.14415	-172.893	146.157	-11.9797	-109.79	150.074	-12.9375	-136.193	149.761	-11.6802	-163.488	172.447	-26.3335	-92.7699	180.049	-28.8985	-116.796	184.909	-22.6474	-139.404	151.467	-6.06051	-55.5271	159.291	1.7128	-22.076	118.672	5.26695	-35.8321	
100	0.833333	91.2753	-20.6745	-20.0923	77.9447	-43.2505	-50.3612	96.2226	-62.2017	-77.1373	128.29	-63.1463	-79.0183	89.3049	-15.8588	-102.084	75.2	-20.8404	-126.369	68.5405	-27.2699	-149.335	115.59	-21.3584	-112.885	110.648	-29.4441	-142.625	104.964	-35.2458	-169.831	142.52	-30.9109	-106.832	141.656	-36.7427	-133.785	140.694	-42.0063	-164.52	163.399	-44.9074	-87.7066	167.728	-51.4901	-111.798	178.178	-55.2739	-135.61	147.484	-14.5059	-53.8513	159.433	-4.54737	-25.2651	120.975	4.34465	-38.6148	
101	0.841667	88.5205	-7.76894	-20.652	75.1792	-31.8947	-44.0485	86.4741	-58.3475	-71.3394	111.999	-69.5785	-73.4514	81.862	-11.8496	-99.995	69.4587	-18.6399	-120.431	59.1112	-28.3527	-146.945	109.151	-27.0334	-111.656	99.8184	-36.9696	-135.219	91.6753	-47.7655	-166.874	130.4	-40.6401	-104.591	128.944	-52.4676	-128.043	124.674	-60.5855	-155.676	149.086	-57.2444	-82.2737	152.391	-71.2071	-107.156	158.999	-78.0463	-129.112	147.701	-19.9404	-50.5116	157.514	-7.52696	-23.7888	125.55	5.59802	-40.1818	
102	0.85	94.7065	9.32521	-16.6947	68.2949	-11.3159	-37.1545	72.301	-43.9354	-61.2278	94.4523	-60.2243	-60.4866	82.599	-0.991804	-94.8745	66.8695	-6.91703	-115.592	51.4919	-14.7709	-139.027	102.055	-22.8144	-104.791	88.1728	-35.2663	-131.184	76.1231	-48.9792	-159.325	118.968	-43.3664	-96.1217	110.589	-54.5256	-119.07	102.831	-64.7432	-144.616	132.107	-62.1929	-78.3233	128.906	-78.4866	-96.0581	130.603	-91.0271	-115.675	141.431	-19.7893	-53.6435	160.585	-8.38406	-23.7458	130.686	11.5131	-39.9177	
103	0.858333	102.04	30.1181	-14.5794	71.8409	12.4805	-32.9714	67.1121	-19.9156	-51.6037	86.6553	-45.182	-55.1691	83.7794	11.3698	-95.192	63.8931	12.1907	-114.778	46.1947	8.5616	-135.615	96.5161	-15.6348	-100.337	76.372	-21.5942	-125.245	60.5828	-31.0656	-148.851	105.4	-36.1219	-93.6662	94.5463	-47.9349	-111.198	81.9244	-58.2162	-134.915	115.97	-59.7304	-71.0756	106.559	-72.3553	-86.6554	102.569	-86.9825	-105.43	139.493	-19.1683	-50.3358	160.117	-7.97465	-24.5874	135.943	21.4237	-40.3272	
104	0.866667	118.534	42.4323	-15.4809	80.1684	38.3215	-35.1175	68.5659	5.39587	-48.9983	77.1756	-20.609	-48.0977	92.4225	33.5435	-93.0651	71.736	35.5796	-114.697	52.5788	30.4133	-133.669	93.2394	3.98517	-101.378	73.3937	-4.59603	-121.478	53.4683	-11.8293	-144.028	97.7002	-24.5546	-89.5393	81.4242	-30.4721	-109.95	63.9626	-42.4967	-129.809	101.952	-45.1936	-64.0016	86.2985	-59.8798	-79.1294	74.237	-73.2814	-100.292	138.567	-12.5084	-47.0384	160.335	-9.41317	-23.0912	145.032	21.6405	-40.2592	
105	0.875	133.933	53.3239	-20.0867	95.7469	58.104	-36.0785	71.943	28.7071	-49.7671	77.1878	-0.821313	-46.3581	101.682	46.6256	-95.8107	83.8283	53.0979	-113.854	64.7553	55.0544	-132.558	95.3848	16.5124	-99.682	75.1985	15.0317	-118.753	51.0404	13.8658	-142.593	91.7623	-7.67481	-90.1861	74.2093	-11.4804	-108.571	56.4492	-16.0381	-126.227	90.1773	-29.5967	-61.6207	68.716	-39.701	-77.768	54.4646	-50.1964	-91.4793	133.198	-7.17086	-48.8496	158.938	-7.62156	-26.1993	150.788	26.9995	-44.8642	
106	0.883333	151.044	59.7733	-25.1894	114.961	71.1931	-41.6356	84.5176	46.9957	-53.044	79.9074	20.859	-46.3875	113.902	50.4298	-99.4504	99.6817	58.9538	-117.98	79.9636	67.4105	-140.227	99.2553	23.3277	-102.062	78.7662	26.8364	-124.344	54.8086	30.3508	-147.96	92.711	3.39439	-90.3376	74.7183	2.30977	-106.802	55.44	3.76178	-126.754	84.681	-15.8782	-58.0717	59.1035	-23.5686	-72.7723	43.8655	-30.9329	-84.2038	131.521	-7.91887	-50.3633	156.15	-13.8091	-26.3719	157.913	23.1761	-49.7339	
107	0.891667	165.159	56.407	-31.3259	132.959	69.8051	-48.5775	99.1086	53.2106	-59.5807	87.9134	27.9699	-53.1829	131.909	49.4825	-106.698	119.405	61.7393	-130.62	99.0813	70.3214	-152.683	111.506	25.5088	-110.247	92.7604	30.8438	-131.775	70.1256	31.7825	-152.216	99.1151	7.72219	-93.4966	77.8733	4.53475	-112.969	62.0977	10.1357	-133.155	84.0152	-8.12499	-63.1968	64.7201	-10.6167	-73.9468	45.1664	-16.4674	-90.4652	133.746	-6.31342	-52.1763	157.224	-13.1387	-32.2448	166.986	17.9425	-52.394	
108	0.9	174.513	50.2538	-36.6382	144.682	68.9881	-59.486	109.319	57.7659	-70.2205	99.1367	29.3091	-60.8191	145.95	42.074	-112.624	134.099	52.2683	-140.8	119.683	61.4426	-163.792	128.356	20.7892	-112.519	107.752	21.1064	-139.267	90.3566	27.3955	-165.205	108.852	3.79076	-102.177	91.4567	0.680569	-120.454	74.243	2.20523	-144.642	90.9305	-7.49562	-72.1489	73.7246	-8.54015	-82.6333	54.7638	-18.665	-97.2141	140.985	-8.24018	-54.9094	164.589	-14.8755	-35.2446	176.62	12.1243	-57.5043	
109	0.908333	182.572	49.0776	-43.5058	154.51	65.1095	-65.1152	118.085	49.283	-78.5007	108.384	23.2051	-68.3433	158.899	34.8434	-117.281	149.05	40.9738	-143.444	135.907	44.7903	-173.068	136.897	9.31182	-122.137	125.615	13.6919	-148.333	108.226	10.258	-173.913	120.03	-6.68493	-105.78	107.066	-9.57952	-125.027	93.0642	-10.2522	-151.376	105.27	-13.9796	-79.6204	83.9183	-19.7582	-92.5782	69.0209	-27.3854	-108.796	151.193	-11.8376	-59.4994	170.546	-20.9743	-35.9341	183.51	8.88994	-57.3322	
110	0.916667	184.778	48.346	-49.6775	156.092	60.794	-71.8855	124.863	45.1086	-87.5083	114.889	12.3091	-79.0356	167.409	25.2717	-120.967	160.151	30.8545	-151.288	153.81	34.2929	-177.197	156.208	4.54088	-124.412	141.13	1.08854	-157.051	130.293	-2.59217	-184.1	138.282	-14.5034	-109.772	128.154	-18.0743	-137.883	117.9	-21.1687	-159.196	120.978	-25.5412	-86.2561	104.883	-30.59	-104.292	91.9642	-45.6422	-120.146	162.746	-17.239	-61.234	181.345	-19.9855	-34.0688	193.27	7.77668	-61.9335	
111	0.925	179.041	47.2431	-45.7543	153.667	55.8554	-71.4861	130.667	34.9697	-93.0706	127.67	2.12442	-87.0194	179.885	27.793	-122.44	175.385	31.6596	-151.68	169.78	33.8361	-178.679	174.566	2.00523	-126.702	168.4	1.95081	-157.06	160.105	-3.93426	-191.755	162.829	-20.144	-115.897	157.788	-22.3773	-142.695	151.964	-28.2437	-171.577	147.783	-32.159	-93.118	137.234	-43.3298	-116.699	131.822	-55.1128	-136.012	181.037	-14.3417	-67.6812	194.199	-19.8628	-36.2542	202.964	15.2905	-55.4637	
112	0.933333	165.956	46.8026	-39.9754	145.361	45.4194	-70.0726	134.732	23.3987	-96.5	144.43	-8.78971	-96.444	182.287	42.4207	-116.073	181.08	44.112	-147.104	178.359	45.4252	-170.764	189.874	19.2382	-128.218	189.03	15.2474	-155.105	186.64	16.9007	-188.942	190.237	-5.92577	-119.525	189.816	-9.39285	-146.974	188.017	-12.4552	-176.901	181.177	-31.9324	-99.4745	181.602	-41.5232	-126.713	180.9	-45.684	-151.199	199.605	-8.19706	-67.3288	208.553	-7.25418	-34.937	199.526	28.0751	-50.7451	
113	0.941667	146.226	37.5182	-32.2221	126.927	34.3153	-66.1353	133.939	16.9079	-102.168	153.444	-6.00403	-107.76	173.054	52.8713	-107.829	168.842	62.5187	-133.159	172.244	66.1136	-165.065	193.41	35.6604	-117.852	195.029	41.803	-152.504	194.855	46.4282	-177.715	202.281	17.7524	-114.712	209.519	17.3722	-141.373	208.978	24.0408	-171.942	208.985	-11.1134	-102.284	213.388	-9.88157	-128.958	219.713	-12.4059	-149.949	205.306	10.4167	-62.4372	209.145	9.48937	-25.8385	186.63	38.1101	-39.6843	
114	0.95	129.528	22.4052	-30.7345	113.635	19.3387	-60.0242	120.404	12.4392	-94.357	145.104	3.36868	-112.646	147.606	58.3643	-100.051	143.448	68.8338	-126.669	144.019	77.9343	-152.816	177.435	55.2159	-109.826	173.685	64.6795	-136.781	174.68	74.3967	-166.026	193.026	41.2168	-106.352	200.407	48.8934	-133.245	202.404	55.8432	-156.205	212.6	13.7277	-94.5533	219.287	19.668	-121.615	226.903	24.0223	-140.994	197.857	25.9057	-50.5163	197.028	25.7282	-22.416	164.366	39.9207	-31.4994	
